<svg xmlns="http://www.w3.org/2000/svg" width="127.83" height="127.83" viewBox="0 0 127.83 127.83"><title>default-avatar</title><circle cx="63.92" cy="63.92" r="63.92" style="fill:#ffbd17"/><path d="M60.73,40.45V32.29a3.57,3.57,0,0,0-3.58-3.53H27.89a3.57,3.57,0,0,0-3.58,3.53V95.77a3.57,3.57,0,0,0,3.58,3.53h72.72a3.57,3.57,0,0,0,3.58-3.53V44a3.57,3.57,0,0,0-3.58-3.53H60.73Z" style="fill-opacity:0.30000001192092896"/><path d="M104.18,51.62v45.1a2.81,2.81,0,0,1-2.81,2.81H27.12a2.81,2.81,0,0,1-2.81-2.81V51.62h79.86Z" style="fill:#fff"/><path d="M72.8,88.28l-3.92-4.11L77.64,75l-8.76-9.2,3.92-4.11L83.52,72.91a3,3,0,0,1,0,4.12Z" style="fill:#707070"/><path d="M55.16,61.66l3.92,4.11L50.33,75l8.76,9.2-3.92,4.11L44.45,77a3,3,0,0,1,0-4.12Z" style="fill:#707070"/></svg>